<?xml version="1.0" encoding="utf-8"?>
<!-- Uploaded to: SVG Repo, www.svgrepo.com, Generator: SVG Repo Mixer Tools -->
<svg width="800px" height="800px" viewBox="0 0 1024 1024" class="icon"  version="1.1" xmlns="http://www.w3.org/2000/svg"><path d="M903.730334 183.712672l-57.869998-0.55085c-0.733102 0-91.938759-5.443998-128.643-11.866831-79.154527-13.8245-142.529957-12.603004-209.451102 35.234966-68.571648-47.286096-114.940343-50.221575-204.129969-35.052714-7.523509 1.283952-14.741901 2.630361-21.89886 3.977794-26.790983 5.136833-104.050298 8.258659-104.050298 8.258659H120.002432c-12.969555 0-23.489977 10.520422-23.489977 23.489977v599.172573c0 12.969555 10.520422 23.489977 23.489977 23.489977h292.827107c-0.673717 2.079511-1.346409 4.159022-1.346409 6.483242 0 12.603004 10.642264 22.819332 23.918985 22.819332h146.138128c13.273649 0 23.97837-10.216328 23.978371-22.819332 0-2.32422-0.673717-4.403731-1.405795-6.483242h299.617515c13.028941 0 23.552434-10.520422 23.552434-23.489977V207.202649c0-12.969555-10.523493-23.489977-23.552434-23.489977z" fill="#27323A" /><path d="M143.551794 230.752012h30.709393v552.133233H143.551794z" fill="#FFFFFF" /><path d="M206.621082 230.937335c33.951013-0.184299 59.579887-4.710896 83.865424-9.298927a825.054986 825.054986 0 0 1 21.043915-3.855952c88.086902-14.924152 119.773081-8.929304 178.498024 33.768762 0.366551 0.244709 0.736174 0.366551 1.102724 0.550851v497.934887c-76.097205-66.738893-144.487625-40.252004-230.309693-6.483242l-54.19937 22.631961c-0.12389-92.309405-0.12389-431.198042-0.001024-535.24834z" fill="#79CCBF" /><path d="M272.564417 772.302366c88.512839-34.805958 141.916649-55.727007 208.470219 10.523494 0 0 0.062457 0.059385 0.121842 0.059385H247.17718l25.387237-10.582879zM534.745612 782.885245c0.304094-0.244709 0.733102-0.429008 1.040268-0.733102 61.41469-66.921145 119.465916-45.022286 215.323084-8.932376l23.611819 9.665478H534.745612z" fill="#F4CE73" /><path d="M814.847873 765.87851l-52.363543-21.532309c-93.163326-35.109028-167.485114-62.883965-240.034556 7.281873v-498.30451c1.405795-0.673717 2.87507-1.221495 4.159022-2.201354 57.562833-45.022286 108.578943-46.491561 182.535204-33.522005 29.055818 5.076423 80.197866 9.480154 105.703873 11.437823 0.243685 103.321292 0.243685 445.697282 0 536.840482z" fill="#79CCBF" /><path d="M846.108116 230.752012h34.132241v552.133233h-34.132241z" fill="#FFFFFF" /></svg>