<?xml version="1.0" encoding="utf-8"?>
<!-- Uploaded to: SVG Repo, www.svgrepo.com, Generator: SVG Repo Mixer Tools -->
<svg width="800px" height="800px" viewBox="0 0 1024 1024" class="icon"  version="1.1" xmlns="http://www.w3.org/2000/svg"><path d="M895.386693 533.07156l-67.639913-48.537284 45.238326-72.585278c3.910218-6.335802 4.644344-14.342586 1.941286-21.401251-2.73275-6.997232-8.524869-12.103348-15.493432-13.583887l-79.806742-16.956565 15.814933-85.507735c1.381221-7.471291-0.764842-15.191387-5.821812-20.581119-4.966868-5.328299-12.256931-7.597229-19.135393-6.209864l-79.809814 16.956565-15.814932-85.57224c-1.381221-7.46822-6.143312-13.709824-12.69925-16.608444-6.583583-2.901691-14.050778-2.142992-19.929928 2.078487l-67.69725 48.508615-45.238325-72.523845c-7.850129-12.63884-27.42784-12.63884-35.274897 0l-45.298735 72.523845-67.639912-48.508615c-5.935463-4.285984-13.403683-4.980178-19.987265-2.078487-6.526245 2.898619-11.257619 9.140224-12.639865 16.608444l-15.844625 85.57224-79.809814-17.02107c-6.965492-1.417057-14.138832 0.884637-19.135392 6.274369-5.027277 5.357992-7.173341 13.048395-5.791096 20.516614l15.814933 85.57224-79.867151 16.956565c-6.968564 1.481562-12.759659 6.648087-15.493433 13.64532-2.703057 7.061737-1.968931 15.065449 1.941287 21.401251l45.238325 72.523845-67.579503 48.537284c-5.908842 4.19281-9.466844 11.314957-9.466844 18.909114 0 7.597229 3.558002 14.687635 9.466844 18.91321l76.486282 54.96626c31.921673 153.364711 159.676964 263.646376 307.240341 263.646375 147.507063 0 275.261331-110.281664 307.183003-263.646375l76.546691-54.96626c5.848433-4.224551 9.406434-11.314957 9.406435-18.91321 0.003072-7.593134-3.55493-14.716304-9.403363-18.909114z" fill="#FFFFFF" /><path d="M511.656998 833.026957c-121.755323 0-229.371814-92.314525-255.827987-219.459581l-4.583934-22.062681-55.000048-39.522997 72.314972-51.939655-48.327387-77.471259 85.363367-18.124818-16.901275-91.558897 85.335723 18.186251 16.931991-91.465724 72.223847 51.784024 48.44411-77.565457 48.384725 77.565457 72.311901-51.816788 16.931992 91.465723 85.366439-18.121746-16.904347 91.497464 85.30603 18.154511-48.327387 77.500952 72.344665 51.909962-55.030765 39.522997-4.583934 22.062681c-26.457197 127.145056-134.045019 219.459581-255.772698 219.459581z" fill="#79CCBF" /><path d="M511.656998 913.713216c-153.650375 0-289.779001-114.219527-327.140576-273.038476l-69.168573-49.673796c-12.169901-8.697906-19.459964-23.292367-19.459964-39.019246 0-15.788312 7.32078-30.382773 19.577711-39.080679l48.738989-35.017902-32.689587-52.413714c-8.112243-13.142592-9.611212-29.563665-4.054586-44.060857 5.73171-14.655895 17.636425-25.151743 31.982082-28.178348l57.701058-12.261027-11.405059-61.837554c-2.880189-15.476027 1.619787-31.296079 12.025533-42.388852 10.023837-10.843969 24.749356-15.69821 39.242453-12.893788l57.848497 12.358296 11.465468-61.840626c2.850497-15.443262 12.609148-28.239781 26.133649-34.227463 13.668869-6.115667 29.218616-4.285984 41.241077 4.350489l48.827044 35.01483 32.743852-52.413713c15.697186-25.277681 57.059081-25.309421 72.814629 0.032764l32.686515 52.380949 48.914074-35.079335c11.965124-8.540227 27.632617-10.243973 41.067016-4.318748 13.581839 5.989729 23.397827 18.815941 26.251396 34.291967l11.432704 61.808886 57.676484-12.232358c15.312205-3.089062 29.454109 2.081559 39.476922 12.829283 10.376054 11.03134 14.872958 26.916921 11.991745 42.392948l-11.405058 61.773049 57.64372 12.261027c14.346681 3.027629 26.281089 13.490713 31.924744 27.956165 5.613963 14.655895 4.114995 31.076967-3.939911 44.125362l-32.746924 52.571392 48.887453 35.079335c12.169901 8.700977 19.430272 23.292367 19.430271 39.019246 0 15.666469-7.23375 30.228166-19.372934 38.987505l-69.256627 49.738302c-37.391268 158.752396-173.465628 273.004687-327.085287 273.004687zM248.391508 271.377734l17.431648 83.932999c1.177468 6.303038-0.026621 12.826211-3.379846 18.154511-3.32046 5.325228-8.494153 9.046027-14.373302 10.272641l-79.867151 16.956565 46.060506 70.380854c6.937847 11.092774 4.175404 26.129553-6.20065 33.565008l-67.579503 48.537284 76.516998 52.571392c4.788712 3.469947 8.199274 8.762411 9.463772 14.846337 29.513494 141.80095 149.44835 244.704497 285.194042 244.704497 135.719071 0 255.62321-102.903547 285.136705-244.704497 1.264498-6.083927 4.67506-11.37639 9.493465-14.846337l76.54669-54.96626-67.639912-46.142416c-10.345337-7.436479-13.13952-22.440495-6.231366-33.565008l45.238325-72.585279-78.954869-14.75214c-5.87915-1.226615-11.052842-4.947414-14.376374-10.272641-3.350153-5.328299-4.554242-11.883213-3.379845-18.154511l15.814933-85.507735-78.250436 18.593758c-12.109492 2.491113-24.105332-5.893484-26.515558-19.035053l-15.811862-85.572239-65.641288 49.42192c-10.405747 7.406786-24.400211 4.379158-31.308365-6.683923l-45.238325-72.520774-43.062569 72.520774c-6.908154 11.12861-20.932312 14.120403-31.308366 6.652183L368.530117 184.673077l-13.786616 84.720367c-1.14368 6.271298-4.614651 11.818708-9.580495 15.378758-4.969939 3.624554-11.052842 4.918745-16.961685 3.624554l-79.809813-17.019022z" fill="#27323A" /><path d="M511.599661 668.692338c-31.513143 0-57.086726 27.35924-57.086726 61.208889 0 33.85272 25.573584 61.273393 57.086726 61.273393 31.569456 0 57.144064-27.420673 57.144064-61.273393 0-33.850673-25.573584-61.208889-57.144064-61.208889z" fill="#27323A" /><path d="M511.599661 756.565249c-13.698562 0-24.869151-11.977411-24.869151-26.665046s11.170589-26.661974 24.869151-26.661974c13.755899 0 24.926488 11.973315 24.926488 26.661974s-11.170589 26.665046-24.926488 26.665046z" fill="#F4CE73" /><path d="M511.656998 642.408178c-7.582895 0-14.168525-5.482906-16.049402-13.364775l-63.434815-265.696194c-1.294191-5.296559-0.177132-10.966836 2.940598-15.255891 3.173021-4.347417 7.994497-6.868223 13.108804-6.868223h126.869631c5.117379 0 9.936807 2.520806 13.051466 6.868223 3.176092 4.289056 4.23479 9.960356 3.001008 15.255891l-63.437887 265.696194c-1.880877 7.880845-8.523845 13.364775-16.049403 13.364775z" fill="#27323A" /><path d="M469.564049 376.711984l42.092949 176.373462 42.096022-176.373462h-84.188971z" fill="#F4CE73" /></svg>