<?xml version="1.0" encoding="utf-8"?>
<!-- Uploaded to: SVG Repo, www.svgrepo.com, Generator: SVG Repo Mixer Tools -->
<svg width="800px" height="800px" viewBox="0 0 1024 1024" class="icon"  version="1.1" xmlns="http://www.w3.org/2000/svg"><path d="M874.875198 580.797927l-71.681188-71.681188c0 0.829347 0.11058 1.658694 0.11058 2.487017 0 195.312269-158.33977 353.708353-353.76569 353.708353-195.368583 0-353.652039-158.396084-353.652039-353.708353 0-195.368583 158.283456-353.708353 353.652039-353.708352 45.37655 0 88.401235 9.174013 128.221159 24.813861 61.817076-39.018222 144.411858-31.833619 198.297919 22.051418 57.53314 57.478874 61.955301 147.838802 13.596173 210.62345l9.063433 9.063433c7.295183-5.251508 13.53986-8.01395 16.081143-5.472667 4.035132 4.035132 110.922617 110.976883 110.922616 110.976882 11.053866 11.052842-39.846545 61.788408-50.846145 50.846146z" fill="#27323A" /><path d="M662.87155 198.405427c-31.944198 0-61.955301 12.379797-84.502279 34.929847-46.590878 46.64412-46.590878 122.527333 0 169.11514 46.590878 46.647192 122.471019 46.590878 169.061897 0 46.590878-46.587806 46.590878-122.471019 0-169.11514-22.55005-22.493737-52.559105-34.929848-84.559618-34.929847z" fill="#79CCBF" /><path d="M760.859424 511.603756c0-21.610124-2.405107-42.612059-6.686995-63.005807-62.425264 43.661542-148.695794 38.246212-204.432016-17.518678-59.386373-59.30139-61.653255-153.422049-8.180844-216.317276-29.125442-9.117699-59.909578-14.422449-92.020669-14.422449-171.602157 0-311.206873 139.604716-311.206873 311.263186 0 171.602157 139.604716 311.263187 311.206873 311.263187 171.659494 0.002048 311.320524-139.658982 311.320524-311.262163z" fill="#F4CE73" /><path d="M637.005135 651.540211c4.145712 4.697586 5.528981 11.55045 2.931384 17.738814-10.390388 24.926488-25.975971 46.647192-46.369718 64.663477-51.123618 45.042763-124.573056 56.814373-187.134497 29.898476-8.622138-3.64708-12.65727-13.650439-8.899612-22.272578 3.650151-8.622138 13.653511-12.600957 22.275649-8.896539 50.622938 21.717632 110.034908 12.212904 151.318989-24.207721 16.469195-14.5361 29.0722-32.111092 37.470107-52.227367 3.593837-8.622138 13.486617-12.710512 22.161998-9.174012a17.21356 17.21356 0 0 1 6.2457 4.47745zM386.095893 509.50172c0-37.96874 32.826787-63.500344 63.500344-63.500344 34.98309 0 63.447102 28.464012 63.447102 63.500344 0 34.986162-28.464012 63.447102-63.447102 63.447102s-63.500344-28.46094-63.500344-63.447102z" fill="#27323A" /><path d="M414.391988 509.50172c0 19.343242 15.80367 35.149983 35.204249 35.149983 19.397507 0 35.149983-15.806742 35.149983-35.149983 0-19.397507-15.752476-35.204249-35.149983-35.204249-14.369207 0-35.204249 12.546691-35.204249 35.204249z" fill="#FFFFFF" /><path d="M436.277537 675.082407c-8.789032-3.205785-18.571232 1.326955-21.773945 10.112915-3.205785 8.842274 1.323884 18.571232 10.112915 21.777017 45.373478 16.578751 95.999488 7.01771 132.14264-24.870174 15.033708-13.209145 26.585182-29.236022 34.264322-47.586095 2.597597-6.188363 1.216376-13.098565-2.928312-17.796151a16.702641 16.702641 0 0 0-6.188363-4.420113c-8.622138-3.64708-18.571232 0.441295-22.218311 9.063433-5.692802 13.594125-14.202313 25.478362-25.367783 35.313805-26.804294 23.65687-64.388053 30.67458-98.043163 18.405363zM221.508375 472.529221c0-55.045099 32.167405-105.892268 81.960996-129.491801 8.458317-3.978818 12.105396-14.148047 8.070265-22.603293-4.035132-8.511559-14.148047-12.049083-22.603293-8.070264-61.568272 29.18278-101.361576 92.02067-101.361575 160.165358 0 27.190299 6.024541 53.276849 17.852464 77.538835 2.928312 6.024541 8.952853 9.507799 15.251796 9.5078 2.487017 0 5.031372-0.554946 7.462076-1.715008 8.400979-4.088374 11.882189-14.258627 7.792791-22.713872-9.562065-19.510135-14.42552-40.62265-14.42552-62.617755z" fill="#27323A" /><path d="M319.553586 363.652327a131.360392 131.360392 0 0 0-68.752876 115.563889c0 20.008767 4.365847 39.241429 13.042252 57.148159 2.931384 6.077783 9.009167 9.615307 15.311181 9.615307 2.483946 0 5.028301-0.551874 7.404738-1.711936 8.398931-4.091446 11.935431-14.258627 7.847058-22.716944-6.409522-13.209145-9.671621-27.467772-9.671621-42.334586 0-35.756123 19.564401-68.639224 51.013038-85.718656 8.234086-4.476427 11.327243-14.810501 6.850817-23.044587-4.530693-8.23511-14.810501-11.277073-23.044587-6.800646z" fill="#27323A" /></svg>