<?xml version="1.0" encoding="utf-8"?>
<!-- Uploaded to: SVG Repo, www.svgrepo.com, Generator: SVG Repo Mixer Tools -->
<svg width="800px" height="800px" viewBox="0 0 1024 1024" class="icon"  version="1.1" xmlns="http://www.w3.org/2000/svg"><path d="M510.490793 894.357688c-212.419345 0-385.236853-172.849249-385.236853-385.301358 0-212.467468 172.817508-385.316717 385.236853-385.316717 212.48385 0 385.364839 172.849249 385.364839 385.316717 0 212.452109-172.880989 385.301358-385.364839 385.301358z" fill="#FFFFFF" /><path d="M109.199418 509.05633c0 221.310765 180.045115 401.354856 401.291375 401.354856 221.310765 0 401.419361-180.044091 401.419361-401.354856 0-221.310765-180.108596-401.371238-401.419361-401.371239-221.24626 0-401.291375 180.061497-401.291375 401.371239z" fill="#27323A" /><path d="M157.361959 509.05633c0-194.781896 158.410418-353.192314 353.12781-353.192315 194.78292 0 353.256819 158.410418 353.256819 353.192315 0 194.718416-158.473899 353.192314-353.256819 353.192314-194.717392 0-353.12781-158.473899-353.12781-353.192314z" fill="#79CCBF" /><path d="M510.554274 212.053818c163.739741 0 297.002512 133.262771 297.002512 297.002512 0 45.151295-10.662742 88.610108-30.66639 129.560401a24985.970851 24985.970851 0 0 1-34.240773-17.621067c17.184891-35.371142 26.338426-72.934423 26.338426-111.939334 0-142.545315-115.952965-258.49828-258.433775-258.498281-142.545315 0-258.49828 115.952965-258.49828 258.498281 0 38.440751 8.968212 75.566833 25.712832 110.623642a9672.708145 9672.708145 0 0 1-34.114835 17.685571c-19.627882-40.640056-30.101205-83.658598-30.101205-128.308189-0.001024-163.740765 133.197242-297.003536 297.001488-297.003536z" fill="#27323A" /><path d="M510.554274 313.208569c107.990209 0 195.848785 87.858576 195.848785 195.848785 0 28.971859-6.835458 56.879901-19.37703 83.344265-6.899963-3.57336-29.099845-14.988657-34.619611-17.87499 9.908138-21.258931 15.427904-43.269394 15.427905-65.469275 0-86.731278-70.548771-157.34353-157.280049-157.34353-86.792711 0-157.344553 70.613275-157.344553 157.34353 0 21.634697 5.204409 43.018542 14.612891 63.841297a22363.955141 22363.955141 0 0 1-34.430192 17.9354c-12.104372-26.027165-18.751436-53.431456-18.751436-81.776697 0.001024-107.991233 87.8596-195.848785 195.91329-195.848785z" fill="#27323A" /><path d="M680.880669 723.592046c-0.250852-0.50068-0.629689-0.940951-0.94095-1.380198-9.282544-11.035436-26.338426-20.31798-56.944406-31.168093-25.147647-8.903707-36.372502-16.179436-41.387493-20.693746-5.64468-5.079495-11.414274-14.799238-11.72963-25.208057l0.629689-9.972643c0 0.064505 0.626618-4.327963 0.626618-4.327963s0.064505-0.436175 0.064505-0.50068c6.080855-5.330347 11.786968-13.356584 13.918697-27.969476 13.296175-0.876446 19.127202-10.975027 22.514214-20.693746 2.507495-7.275729 3.762779-14.047707 3.762779-20.633337 0-3.008175-0.816037-8.968212-0.816037-8.968212s-1.631049-13.23167-7.776409-14.862719c-2.507495-0.690099-0.311261-0.625594-0.437199-0.876446 1.503064-7.840914 3.259027-15.739165 3.259027-22.829571 0-8.839202-1.190779-17.120387-3.51295-24.707377-18.061337-58.196618-66.724559-68.981202-91.117603-66.599644 0.436175 0 0.876446 0 1.377125 0.064504-0.440271 0-1.00136 0-1.44163-0.064504-24.017278-2.507495-72.244325 8.091766-91.872206 66.348793-2.447086 7.400643-3.702369 15.614251-3.70237 24.645943 0 7.08631 1.755963 15.238485 3.326604 23.201242-0.127986 0.314333 1.817396-0.124914-0.314333 0.754603-6.209864 2.632409-7.840914 14.924152-7.840914 14.924153s-0.811941 5.959013-0.811941 9.031692c0 6.521126 1.252212 13.356584 3.759707 20.568832 3.137185 9.028621 8.968212 19.692386 22.640152 20.633337 2.572 16.490697 9.533396 24.081783 13.736446 27.655143 0.061433 0.626618 0.186347 1.566545 0.186347 1.566545l0.565185 3.637864 0.565184 9.15763c-0.314333 12.227239-7.716 22.074968-12.040891 26.024094-5.018062 4.51431-16.30435 11.79004-41.451997 20.693746-30.60598 10.849089-47.600429 20.131633-56.879902 31.168093-0.440271 0.503752-0.754603 1.005455-1.065865 1.506136-0.565185 0.940951-13.296175 22.829571-13.296174 49.793591 0 2.572 0 8.652855 5.079495 12.480138 2.382581 1.817396 6.460716 2.507495 9.718719 2.006815 0.378838 0 0.816037 0 1.194874-0.124914-0.314333 0.061433-0.565185 0.124914-0.816036 0.124914h338.515942c8.277089 0 14.486953-6.209864 14.486953-14.486953 0.001024-27.029549-13.170237-48.978578-13.731326-49.919529z" fill="#27323A" /><path d="M515.008175 765.984994c-0.064505 0-0.064505 0.064505-0.064505 0.064504h-9.343977l-0.064505-0.064504c-11.725535-2.758347-26.087574-13.671941-37.124034-29.221687 16.555202-25.902251 37.627786-30.416561 41.827763-30.981747 4.203049 0.565185 25.272561 5.079495 41.76633 30.981747-10.972979 15.614251-25.335018 26.46334-36.997072 29.221687zM453.674372 686.718863c0.061433 0 0.061433-0.064505 0.124914-0.064504 4.703729-4.199978 9.533396-10.283904 13.171261-17.745981 5.955941 6.961396 14.859648 15.678756 28.155823 26.46334-9.969571 3.888716-22.951413 11.79004-34.741453 27.530229-4.893148-10.345337-8.152175-21.824116-8.403027-34.176268a62.766218 62.766218 0 0 0 1.692482-2.006816zM560.033532 722.840514c-11.725535-15.678756-24.707377-23.580079-34.616539-27.468796 13.482522-10.910522 22.324796-19.752796 28.345242-26.714192 3.259027 6.896892 7.462076 12.416657 11.725534 16.493769a43.597037 43.597037 0 0 0 3.012271 3.57336c-0.249828 12.291743-3.511927 23.76745-8.466508 34.115859z" fill="#FFFFFF" /><path d="M433.042059 574.214344c-3.259027-9.093126-2.447086-20.507399-2.257667-21.44835 0.690099-3.699298 1.817396-5.955941 3.952198-7.837842 1.377126-0.629689 4.389396 0.250852 4.449805-1.569616-4.199978-15.80367-5.769594-32.169453-1.065864-46.030813 5.834099-17.370215 14.423473-28.907354 23.706016-36.808677 21.258931-19.065769 46.280641-16.558273 47.786776-16.43336a8.87299 8.87299 0 0 0 2.572 0c1.566545-0.124914 27.715552-2.568928 48.663222 17.245301 8.903707 7.840914 16.930968 19.190683 22.135377 35.996736 4.392468 13.986274 3.137185 30.227143-1.065865 46.030813 0.124914 1.820468 3.07268 0.940951 4.453901 1.569616 2.07132 1.881901 3.262099 4.138544 3.952198 7.837842 1.377126 7.462076 0.124914 14.612891-2.260739 21.44835-3.57336 10.220423-7.522485 14.548387-19.627882 10.975027 0 26.965044-13.607436 31.417921-13.607436 31.417921l-4.954581 7.962756c0-0.061433-0.440271 2.510567-0.440271 2.510567l-0.876445 6.14536-0.62969 11.662054c0.064505 2.134801 0.565185 4.078135 0.879518 6.148431-3.888716 6.14536-13.921769 18.437103-38.568737 37.689219-24.017278-18.815941-34.240773-30.981746-38.314812-37.25202 0.375766-2.382581 0.940951-4.640248 0.94095-7.147744 0.061433-0.189419 0.061433-0.629689 0.061433-1.255283 0-3.008175-0.440271-9.844657-0.44027-9.844657l-0.816037-5.583247-0.375766-2.44299c0-3.888716-1.817396-6.58563-3.699298-8.592446 0 0-14.927224-4.828643-14.927224-31.417921-12.099253 3.57336-15.986945-0.754603-19.62481-10.975027z" fill="#F4CE73" /><path d="M358.100821 735.94727c8.71736-9.847729 30.855808-18.500584 46.91033-24.206697 13.357608-4.703729 24.267106-9.596877 33.110403-14.486953 3.197594 29.286192 19.566449 53.932136 37.878638 68.795878H349.322028c1.817396-15.80367 7.462076-27.719647 8.778793-30.102228zM544.480714 766.049498c18.250756-14.862719 34.68002-39.570096 37.878638-68.920792 8.842274 4.954581 19.8173 9.844657 33.299822 14.612891 16.118003 5.706113 38.317884 14.423473 46.971763 24.267106 1.255283 2.257667 7.337162 14.362039 9.21804 30.040795H544.480714z" fill="#FFFFFF" /></svg>