<?xml version="1.0" encoding="utf-8"?>
<!-- Uploaded to: SVG Repo, www.svgrepo.com, Generator: SVG Repo Mixer Tools -->
<svg width="800px" height="800px" viewBox="0 0 1024 1024" class="icon"  version="1.1" xmlns="http://www.w3.org/2000/svg"><path d="M925.747964 668.583807s-77.840882-77.894124-101.99536-102.048603v-95.79983c0.545731-8.068216 0.681908-16.111859 0-24.151407V240.883357c0-24.778025-25.267442-22.657558-25.31966-22.657558-44.12229 0.542659-73.955237-5.978466-109.494297-12.063417-79.062377-13.58491-165.298095-11.248404-228.763627 37.439391h-8.312925c-66.295551-47.385413-133.022158-51.296655-224.039419-37.277617-43.848913 6.738189-105.144832 12.227239-105.144832 12.227238-9.996192 1.032076-26.788936 4.076087-26.788936 21.463708v536.754476c0 11.195162 9.183227 20.270882 20.431632 20.270881h261.857648c-0.706481 2.064153-1.30443 4.181548-1.30443 6.518054 0 11.195162 9.131009 20.26781 20.431632 20.26781H522.174348c11.303694 0 20.431632-9.072648 20.431632-20.26781 0-2.336506-0.597949-4.453901-1.357672-6.518054H803.32302c11.300622 0 20.429584-9.07572 20.429584-20.270881V666.572896c26.411122 26.40805 52.003136 52.001088 52.003135 52.001088 10.814277 10.761035 60.859744-39.122658 49.992225-49.990177z" fill="#27323A" /><path d="M157.998816 758.94783l29.070152-12.063417c89.223415-34.39538 177.630793-57.871022 251.043371 12.063417H157.998816z" fill="#F4CE73" /><path d="M441.481946 726.018654c-81.291375-64.553922-180.566273-37.439391-265.062409-4.83581 0 0-20.050746 8.312925-39.939719 16.573631V255.448126c29.290287-0.978834 53.036236-4.674037 75.094822-8.805414l20.865759-3.74742c86.671893-14.453165 145.628234-8.641592 203.226902 32.495048l5.814645 4.128306v446.500008z" fill="#79CCBF" /><path d="M750.451629 543.224407c-45.807606 45.807606-120.414034 45.860848-166.221639 0-45.807606-45.860848-45.807606-120.469323 0-166.276929 22.168141-22.168141 51.675492-34.34009 83.083175-34.34009 31.462972 0 60.967252 12.171949 83.138464 34.34009 45.807606 45.862895 45.807606 120.416081 0 166.276929z" fill="#FFFFFF" /><path d="M473.921705 758.94783c68.195882-71.236821 161.875246-46.948214 258.816708-11.083559l27.384837 11.083559H473.921705z" fill="#F4CE73" /><path d="M742.407986 721.781816c-90.581087-33.527125-195.672677-61.566225-273.105028 4.510215V280.607036h0.325596l7.44467-5.761403c56.349529-43.254036 134.32454-44.611707 207.138144-32.114163l14.616987 2.55357c26.137745 4.618747 52.00416 8.585278 84.118323 9.456605v99.302542c-1.549138-1.683267-2.718416-3.614315-4.348441-5.244341-61.457693-61.401379-161.060233-61.457693-222.514854 0-61.457693 61.457693-61.457693 161.113475 0 222.571168 56.566593 56.566593 145.354856 60.915034 207.082854 13.367847l8.910874 8.910874c-5.160382 7.172317-7.878798 13.312557-5.433759 15.813909 1.087366 1.085318 7.38938 7.38938 16.303326 16.300254v112.373463c-20.106036-8.098933-40.538692-16.355544-40.538692-16.355545z" fill="#79CCBF" /></svg>